<?xml version="1.0" encoding="utf-8"?>
<!-- Generator: Adobe Illustrator 26.3.1, SVG Export Plug-In . SVG Version: 6.00 Build 0)  -->
<svg version="1.2" baseProfile="tiny" id="Layer_1" xmlns="http://www.w3.org/2000/svg" xmlns:xlink="http://www.w3.org/1999/xlink"
	 x="0px" y="0px" viewBox="0 0 1000 1000" overflow="visible" xml:space="preserve">
<g>
	<g>
		<g>
			<linearGradient id="SVGID_1_" gradientUnits="userSpaceOnUse" x1="46.1566" y1="980.6479" x2="847.9578" y2="96.0987">
				<stop  offset="0" style="stop-color:#21145F"/>
				<stop  offset="0.9987" style="stop-color:#008456"/>
			</linearGradient>
			<path fill="url(#SVGID_1_)" d="M121.8,947.1l-0.1-20.7l0.5-28c-4.4,0.1-6.9,0.1-7.7,0.1l-8.6-0.1l0.2,5.2
				c0.1,1.5,0.1,4.6,0.2,9.4l-0.1,13.9H71.4l-0.1-5.3l0.4-23.1c-3.9,0.1-6.5,0.1-7.7,0.1c-1.7,0-4.5,0-8.6-0.1l0.3,5.6
				c0.1,3.4,0.2,9.4,0.3,18c0.1,8.6,0,17.9-0.3,28l-0.4,18.4c4.3-0.1,6.9-0.1,7.9-0.1l8.4,0.1l-0.3-11.7L71.3,938h35
				c0.2,10.7,0.1,20.9-0.4,30.5c4.7-0.1,7.5-0.1,8.5-0.1l8,0.1c0-1.1-0.1-4.2-0.3-9.2L121.8,947.1z"/>
		</g>
		<g>
			
				<linearGradient id="SVGID_00000116217064181875541850000014763199660504176819_" gradientUnits="userSpaceOnUse" x1="89.4528" y1="1019.8939" x2="891.254" y2="135.3446">
				<stop  offset="0" style="stop-color:#21145F"/>
				<stop  offset="0.9987" style="stop-color:#008456"/>
			</linearGradient>
			<path fill="url(#SVGID_00000116217064181875541850000014763199660504176819_)" d="M180.7,928.8c-0.1-3.6-1.2-6.3-3-8.3
				c-1.9-1.9-4.4-3.3-7.6-4.2c-3.2-0.9-6.7-1.3-10.4-1.3c-3.3,0-6.8,0.2-10.3,0.7c-3.5,0.4-7.6,1.2-12.2,2.3c-0.2,2-0.4,3.5-0.5,4.5
				c-0.1,1-0.3,2.7-0.7,5.2c7.4-3,14.2-4.5,20.5-4.5c1.7,0,3.2,0.2,4.6,0.5c1.4,0.4,2.6,1,3.5,1.9c0.9,0.9,1.4,2.1,1.4,3.4
				c0,0.7-0.1,1.4-0.4,2c-0.3,0.7-0.7,1.3-1.3,1.9c-0.6,0.6-1.3,1.1-2.1,1.5c-0.8,0.4-1.9,0.8-3.3,1.2c-1.4,0.4-2.7,0.7-4,1
				c-4.9,1.1-8.7,2.1-11.7,3.2c-2.9,1-5.2,2.1-6.7,3.2c-1.5,1.1-2.8,2.3-3.7,3.5c-0.9,1.2-1.6,2.5-2.1,4c-0.5,1.4-0.7,2.9-0.6,4.4
				c0.1,2.6,0.9,5.1,2.3,7.6c1.4,2.5,3.5,4.4,6.4,5.5c2.8,1.2,6.4,1.7,10.7,1.7c1.2,0,2.6-0.1,4-0.2c1.4-0.1,3.4-0.4,5.8-0.8
				c0.8-3.9,1.5-6.8,2.2-8.7c-2,0.7-3.6,1.1-4.8,1.3c-1.2,0.2-2.4,0.3-3.5,0.3c-1.7,0-3.2-0.2-4.5-0.6c-1.3-0.4-2.4-1.1-3.2-2.2
				c-0.9-1-1.4-2.3-1.4-3.7c0-0.9,0.1-1.7,0.4-2.5c0.3-0.8,0.8-1.5,1.5-2.2c0.7-0.7,1.5-1.3,2.6-1.9c1-0.6,2.2-1.1,3.5-1.5
				c1.3-0.4,3-1,5.1-1.6c2.1-0.6,3.6-1,4.5-1.3c0.8-0.3,1.6-0.6,2.3-0.9c0.7-0.3,1.6-0.9,2.9-1.8l-0.1,12.8
				c-0.1,5.4-0.2,10.2-0.5,14.4c2.8-0.1,5.3-0.1,7.3-0.1c2.2,0,4.6,0,7.2,0.1c-0.2-8.5-0.3-16.8-0.1-24.8
				C180.7,935.7,180.8,930.8,180.7,928.8z"/>
		</g>
		<g>
			
				<linearGradient id="SVGID_00000065790523856127858680000017325181114328810679_" gradientUnits="userSpaceOnUse" x1="93.8114" y1="1023.8447" x2="895.6125" y2="139.2954">
				<stop  offset="0" style="stop-color:#21145F"/>
				<stop  offset="0.9987" style="stop-color:#008456"/>
			</linearGradient>
			<path fill="url(#SVGID_00000065790523856127858680000017325181114328810679_)" d="M203.9,897.7c-2,0-4.5,0-7.6-0.1l0.1,1.6
				c0.1,1.9,0.1,4.6,0.1,8.1c2.9-0.1,5.4-0.1,7.6-0.1c2.2,0,4.6,0,7.2,0.1l0-6.8c0-1.1,0-2.1,0.1-2.9
				C209.1,897.7,206.6,897.7,203.9,897.7z"/>
		</g>
		<g>
			
				<linearGradient id="SVGID_00000044153565668973954830000004561945027203816082_" gradientUnits="userSpaceOnUse" x1="113.8895" y1="1042.0446" x2="915.6906" y2="157.4952">
				<stop  offset="0" style="stop-color:#21145F"/>
				<stop  offset="0.9987" style="stop-color:#008456"/>
			</linearGradient>
			<path fill="url(#SVGID_00000044153565668973954830000004561945027203816082_)" d="M211.2,933.3c0.1-5.4,0.2-11.1,0.4-17
				c-3.4,0.1-5.9,0.1-7.4,0.1c-1.7,0-4.2,0-7.5-0.1c0.2,6.4,0.3,13.2,0.3,20.4c0,7.2,0,13.5-0.1,18.9c-0.1,3.5-0.3,7.8-0.6,12.9
				c3.6-0.1,6.3-0.1,8.1-0.1c1.9,0,4.4,0,7.5,0.1c-0.2-4.1-0.3-9.6-0.5-16.6C211.2,944.9,211.1,938.7,211.2,933.3z"/>
		</g>
		<g>
			
				<linearGradient id="SVGID_00000109010206160040466990000010096025925153578686_" gradientUnits="userSpaceOnUse" x1="123.5285" y1="1050.7817" x2="925.3296" y2="166.2325">
				<stop  offset="0" style="stop-color:#21145F"/>
				<stop  offset="0.9987" style="stop-color:#008456"/>
			</linearGradient>
			<path fill="url(#SVGID_00000109010206160040466990000010096025925153578686_)" d="M237.5,898.4c-2.9,0.1-5.4,0.1-7.4,0.1
				c-1.5,0-4,0-7.6-0.1c0.3,10.9,0.4,23.9,0.2,38.9c-0.1,15-0.3,25.4-0.6,31.2c4.6-0.1,7.2-0.1,7.9-0.1c2,0,4.3,0,7.1,0.1L237,959
				l0.1-41.8L237.5,898.4z"/>
		</g>
		<g>
			
				<linearGradient id="SVGID_00000114031330839197198090000002189946970036518805_" gradientUnits="userSpaceOnUse" x1="165.7099" y1="1089.0172" x2="967.511" y2="204.4679">
				<stop  offset="0" style="stop-color:#21145F"/>
				<stop  offset="0.9987" style="stop-color:#008456"/>
			</linearGradient>
			<path fill="url(#SVGID_00000114031330839197198090000002189946970036518805_)" d="M339.6,947.1l-0.1-20.7l0.5-28
				c-4.4,0.1-6.9,0.1-7.7,0.1l-8.6-0.1l0.2,5.2c0.1,1.5,0.1,4.6,0.2,9.4l-0.1,13.9h-34.9l-0.1-5.3l0.4-23.1
				c-3.9,0.1-6.5,0.1-7.7,0.1c-1.7,0-4.5,0-8.6-0.1l0.3,5.6c0.1,3.4,0.2,9.4,0.3,18c0.1,8.6,0,17.9-0.3,28l-0.4,18.4
				c4.3-0.1,6.9-0.1,7.9-0.1l8.4,0.1l-0.3-11.7l-0.1-18.9h35c0.2,10.7,0.1,20.9-0.4,30.5c4.7-0.1,7.5-0.1,8.5-0.1l8,0.1
				c0-1.1-0.1-4.2-0.3-9.2L339.6,947.1z"/>
		</g>
		<g>
			
				<linearGradient id="SVGID_00000091693655623567726910000008313233884098371513_" gradientUnits="userSpaceOnUse" x1="209.6462" y1="1128.8434" x2="1011.4473" y2="244.294">
				<stop  offset="0" style="stop-color:#21145F"/>
				<stop  offset="0.9987" style="stop-color:#008456"/>
			</linearGradient>
			<path fill="url(#SVGID_00000091693655623567726910000008313233884098371513_)" d="M401.2,942.1c0.3-1.7,0.4-3.4,0.3-5
				c-0.1-3.4-0.8-6.5-2.1-9.3c-1.3-2.8-3-5.2-5.2-7.2c-2.2-2-4.9-3.4-8.1-4.3c-3.2-0.9-6.5-1.3-10-1.3c-3.7,0-7.2,0.5-10.6,1.6
				c-3.3,1-6.3,2.8-8.8,5.3c-2.5,2.5-4.5,5.7-5.8,9.7c-1.3,3.9-1.9,8-1.7,12.2c0.2,3.8,1,7.4,2.3,10.9c1.4,3.4,3.5,6.4,6.3,8.7
				c2.8,2.4,5.9,4,9.5,4.9c3.6,0.9,7.6,1.3,12.1,1.3c2.6,0,5.1-0.1,7.6-0.4c2.5-0.3,5.6-0.8,9.3-1.6c0.6-5.2,1.1-8.9,1.5-10.9
				c-3.8,1.2-7,2.1-9.7,2.6c-2.7,0.5-5.3,0.8-7.6,0.8c-2,0-4.1-0.3-6.2-0.9c-2.1-0.6-4-1.6-5.5-3c-1.6-1.3-2.8-2.9-3.6-4.9
				c-0.9-1.9-1.3-4-1.4-6.3c0-0.8,0-1.8,0-3L401.2,942.1z M364.6,932.2c0.3-1,0.8-2,1.4-3c0.7-1.1,1.5-2,2.6-2.9
				c1.1-0.9,2.3-1.5,3.6-1.9c1.3-0.4,2.7-0.7,4.2-0.7c1.2,0,2.4,0.1,3.5,0.4c1.1,0.3,2.1,0.7,2.9,1.2c0.8,0.5,1.6,1.1,2.2,1.9
				c0.7,0.8,1.2,1.7,1.6,2.7c0.4,1,0.7,1.9,0.8,2.7c0.1,0.8,0.2,2,0.3,3.6l-24-0.1C364,934.5,364.3,933.2,364.6,932.2z"/>
		</g>
		<g>
			
				<linearGradient id="SVGID_00000103231255459796545060000008950167517758266283_" gradientUnits="userSpaceOnUse" x1="240.1957" y1="1156.535" x2="1041.9969" y2="271.9857">
				<stop  offset="0" style="stop-color:#21145F"/>
				<stop  offset="0.9987" style="stop-color:#008456"/>
			</linearGradient>
			<path fill="url(#SVGID_00000103231255459796545060000008950167517758266283_)" d="M455.3,928.8c-0.1-3.6-1.2-6.3-3-8.3
				c-1.9-1.9-4.4-3.3-7.6-4.2c-3.2-0.9-6.7-1.3-10.4-1.3c-3.3,0-6.8,0.2-10.3,0.7c-3.5,0.4-7.6,1.2-12.2,2.3c-0.2,2-0.4,3.5-0.5,4.5
				c-0.1,1-0.3,2.7-0.7,5.2c7.4-3,14.2-4.5,20.5-4.5c1.7,0,3.2,0.2,4.6,0.5s2.6,1,3.5,1.9c0.9,0.9,1.4,2.1,1.4,3.4
				c0,0.7-0.1,1.4-0.4,2c-0.3,0.7-0.7,1.3-1.3,1.9c-0.6,0.6-1.3,1.1-2.1,1.5c-0.8,0.4-1.9,0.8-3.3,1.2c-1.4,0.4-2.7,0.7-4,1
				c-4.9,1.1-8.7,2.1-11.7,3.2c-2.9,1-5.2,2.1-6.7,3.2c-1.5,1.1-2.8,2.3-3.7,3.5c-0.9,1.2-1.6,2.5-2.1,4c-0.5,1.4-0.7,2.9-0.6,4.4
				c0.1,2.6,0.9,5.1,2.3,7.6c1.4,2.5,3.5,4.4,6.4,5.5c2.8,1.2,6.4,1.7,10.7,1.7c1.2,0,2.6-0.1,4-0.2c1.4-0.1,3.4-0.4,5.8-0.8
				c0.8-3.9,1.5-6.8,2.2-8.7c-2,0.7-3.6,1.1-4.8,1.3c-1.2,0.2-2.4,0.3-3.5,0.3c-1.7,0-3.2-0.2-4.5-0.6c-1.3-0.4-2.4-1.1-3.2-2.2
				c-0.9-1-1.4-2.3-1.4-3.7c0-0.9,0.1-1.7,0.4-2.5c0.3-0.8,0.8-1.5,1.5-2.2c0.7-0.7,1.5-1.3,2.6-1.9c1-0.6,2.2-1.1,3.5-1.5
				c1.3-0.4,3-1,5.1-1.6c2.1-0.6,3.6-1,4.5-1.3c0.8-0.3,1.6-0.6,2.3-0.9c0.7-0.3,1.6-0.9,2.9-1.8l-0.1,12.8
				c-0.1,5.4-0.2,10.2-0.5,14.4c2.8-0.1,5.3-0.1,7.3-0.1c2.2,0,4.6,0,7.2,0.1c-0.2-8.5-0.3-16.8-0.1-24.8
				C455.3,935.7,455.4,930.8,455.3,928.8z"/>
		</g>
		<g>
			
				<linearGradient id="SVGID_00000099638888309181771610000004258063648978577835_" gradientUnits="userSpaceOnUse" x1="257.3384" y1="1172.0741" x2="1059.1395" y2="287.5247">
				<stop  offset="0" style="stop-color:#21145F"/>
				<stop  offset="0.9987" style="stop-color:#008456"/>
			</linearGradient>
			<path fill="url(#SVGID_00000099638888309181771610000004258063648978577835_)" d="M481.3,898.4c-2.9,0.1-5.4,0.1-7.4,0.1
				c-1.5,0-4,0-7.6-0.1c0.3,10.9,0.4,23.9,0.2,38.9c-0.1,15-0.3,25.4-0.6,31.2c4.6-0.1,7.2-0.1,7.9-0.1c2,0,4.3,0,7.2,0.1l-0.2-9.5
				l0.1-41.8L481.3,898.4z"/>
		</g>
		<g>
			
				<linearGradient id="SVGID_00000169517089353697296470000016592496787278865086_" gradientUnits="userSpaceOnUse" x1="278.6171" y1="1191.3621" x2="1080.4182" y2="306.8128">
				<stop  offset="0" style="stop-color:#21145F"/>
				<stop  offset="0.9987" style="stop-color:#008456"/>
			</linearGradient>
			<path fill="url(#SVGID_00000169517089353697296470000016592496787278865086_)" d="M515.7,959.1c-1.2,0-2.3-0.3-3.3-0.8
				c-1-0.5-1.8-1.4-2.3-2.5c-0.5-1.2-0.8-2.8-0.9-4.9c-0.1-2.2-0.1-10.2,0.1-24.2h13.1c-0.1-2-0.1-5.3,0-9.9h-13
				c-0.1-4-0.2-8.4-0.1-13c-3.6,0.9-6,1.5-7.3,1.7l-6,1.2c0,4.8-0.1,8.1-0.2,10.1h-7.7c0.1,4.6,0,7.9-0.1,9.9h7.4l-0.3,21.4
				c-0.1,4.1-0.1,6.5-0.1,7.3c0,0.8,0,1.4,0,1.8c0.1,1.7,0.4,3.4,0.9,5.1c0.5,1.6,1.5,3,2.8,4.3c1.3,1.2,3,2.1,5.1,2.5
				c2,0.5,4.3,0.7,6.8,0.7c1.4,0,3-0.1,4.6-0.3c1.6-0.2,3.9-0.6,6.7-1.2c0.7-5.1,1.2-8.6,1.5-10.5c-2.3,0.6-4,1-4.9,1.1
				C517.4,959,516.5,959.1,515.7,959.1z"/>
		</g>
		<g>
			
				<linearGradient id="SVGID_00000078045595209902219780000015962897830149147528_" gradientUnits="userSpaceOnUse" x1="302.7336" y1="1213.2225" x2="1104.5348" y2="328.6732">
				<stop  offset="0" style="stop-color:#21145F"/>
				<stop  offset="0.9987" style="stop-color:#008456"/>
			</linearGradient>
			<path fill="url(#SVGID_00000078045595209902219780000015962897830149147528_)" d="M582.5,924.6c-0.8-2.1-2.2-3.9-4.1-5.4
				c-2-1.5-4.3-2.6-6.9-3.3c-2.6-0.6-5.4-1-8.2-1c-1.6,0-3.2,0.1-4.8,0.3c-1.6,0.2-3,0.5-4.2,0.9c-1.3,0.4-2.4,0.8-3.3,1.3
				c-0.9,0.5-1.8,1.1-2.7,1.8c-0.9,0.7-1.7,1.5-2.4,2.3c-0.7,0.8-1.6,2.1-2.6,3.7c0.1-6.7,0.1-11.5,0.2-14.5l0.4-12.2
				c-2.4,0.1-4.8,0.1-7.4,0.1c-2,0-4.5,0-7.5-0.1l0.5,29.5l-0.2,23.9l-0.5,16.7c3.3-0.1,5.9-0.1,7.8-0.1c2,0,4.3,0,7,0.1
				c-0.1-8.6-0.2-14.3-0.1-17.2c0.1-6,0.5-10.5,1.1-13.3c0.6-2.7,1.4-4.8,2.4-6.3c1.2-1.8,2.8-3.1,4.7-4c1.9-0.9,4.2-1.4,6.8-1.4
				c2,0,3.9,0.4,5.6,1.1c1.7,0.7,3,1.9,4,3.4c0.9,1.5,1.5,3.6,1.6,6.3c0.1,2.9,0.1,7.9-0.1,14.9c-0.2,7-0.4,12.5-0.7,16.5
				c2.9-0.1,5.6-0.1,7.8-0.1c2.1,0,4.6,0,7.3,0.1c-0.1-3-0.2-5.7-0.2-8.1l0.3-22.4c0-3.1,0-5.4,0-6.9
				C583.8,928.9,583.3,926.7,582.5,924.6z"/>
		</g>
		<g>
			
				<linearGradient id="SVGID_00000176760070837744733340000013952587435880347570_" gradientUnits="userSpaceOnUse" x1="356.4585" y1="1261.9216" x2="1158.2596" y2="377.3723">
				<stop  offset="0" style="stop-color:#21145F"/>
				<stop  offset="0.9987" style="stop-color:#008456"/>
			</linearGradient>
			<path fill="url(#SVGID_00000176760070837744733340000013952587435880347570_)" d="M643.4,955.5c-3.9-2.2-6.7-5-8.6-8.6
				c-1.9-3.5-2.9-7.5-3.1-12c-0.2-3.7,0.4-7.3,1.6-10.8c1.2-3.4,3.1-6.4,5.6-8.8c2.5-2.4,5.4-4.2,8.7-5.3c3.3-1.1,6.8-1.7,10.5-1.7
				c2.3,0,4.8,0.2,7.4,0.6c2.6,0.4,5.8,1.1,9.7,2.1l-0.6-5.5c-0.2-1.3-0.3-3.4-0.6-6.5c-6.6-1.3-12.7-1.9-18.2-1.9
				c-5.6,0-11,0.8-16.1,2.4c-5.1,1.6-9.5,4.1-13.1,7.4c-3.6,3.3-6.4,7.4-8.2,12.2c-1.8,4.8-2.6,10.1-2.4,15.8
				c0.2,5.2,1.3,10.1,3.1,14.5c1.9,4.4,4.7,8.2,8.6,11.3c3.9,3.1,8.2,5.4,12.9,6.8s9.7,2.2,14.8,2.2c2.3,0,5.1-0.1,8.3-0.4
				c3.2-0.3,6.8-0.8,10.7-1.4c0.4-4.1,0.9-8.2,1.4-12.2c-7.1,2.1-13.2,3.1-18.4,3.1C652,958.7,647.3,957.7,643.4,955.5z"/>
		</g>
		<g>
			
				<linearGradient id="SVGID_00000102506346582124051550000015536318048767260801_" gradientUnits="userSpaceOnUse" x1="377.2845" y1="1280.7994" x2="1179.0857" y2="396.2501">
				<stop  offset="0" style="stop-color:#21145F"/>
				<stop  offset="0.9987" style="stop-color:#008456"/>
			</linearGradient>
			<path fill="url(#SVGID_00000102506346582124051550000015536318048767260801_)" d="M699.8,898.4c-2.9,0.1-5.4,0.1-7.4,0.1
				c-1.5,0-4,0-7.6-0.1c0.3,10.9,0.4,23.9,0.2,38.9c-0.1,15-0.3,25.4-0.6,31.2c4.6-0.1,7.2-0.1,7.9-0.1c2,0,4.3,0,7.1,0.1l-0.2-9.5
				l0.1-41.8L699.8,898.4z"/>
		</g>
		<g>
			
				<linearGradient id="SVGID_00000021086769067733964320000011231443470682641068_" gradientUnits="userSpaceOnUse" x1="406.1962" y1="1307.0065" x2="1207.9973" y2="422.4571">
				<stop  offset="0" style="stop-color:#21145F"/>
				<stop  offset="0.9987" style="stop-color:#008456"/>
			</linearGradient>
			<path fill="url(#SVGID_00000021086769067733964320000011231443470682641068_)" d="M763.6,916.3c-2.5,0.1-4.8,0.1-6.8,0.1
				c-1.8,0-4.4,0-7.8-0.1c0.1,5.7,0.2,11.3,0.1,16.9c0,4.6-0.1,7.8-0.3,9.7c-0.2,2.7-0.6,4.8-1.1,6.3c-0.7,2.1-1.6,3.7-2.7,5
				c-1.1,1.2-2.4,2.2-4,2.9c-1.7,0.8-3.6,1.1-5.6,1.1c-2.1,0-4.1-0.4-5.9-1.3c-1.9-0.9-3.2-2.1-4-3.7c-0.8-1.6-1.3-3.7-1.4-6.1
				c0-0.5,0-1.4,0-2.7c0-1.2,0-2.8,0-4.6l0.7-23.4c-2.8,0.1-5.1,0.1-7.1,0.1c-1.8,0-4.4,0-7.6-0.1c0.1,2.1,0.1,3.8,0.2,5.2
				l-0.1,17.5l-0.3,13.2l0,1.1c0.2,4.2,1.1,7.4,2.9,9.7c1.7,2.3,4.1,3.9,7,5.1c2.9,1.1,6.2,1.7,10.1,1.7c2,0,3.8-0.2,5.6-0.5
				c1.8-0.3,3.3-0.7,4.6-1.2c1.3-0.5,2.6-1.2,3.7-2c1.1-0.8,2-1.7,2.7-2.6c0.7-0.9,1.5-2,2.4-3.5l0.3,8.5c2.6-0.1,4.9-0.1,6.9-0.1
				c1.6,0,3.9,0,6.9,0.1c-0.1-5.7-0.2-10.9-0.2-15.7c0-4.8,0-10.8,0.2-18.2C763.2,927.3,763.4,921.2,763.6,916.3z"/>
		</g>
		<g>
			
				<linearGradient id="SVGID_00000033334236469425477680000012989050293376264353_" gradientUnits="userSpaceOnUse" x1="435.9245" y1="1333.9537" x2="1237.7256" y2="449.4044">
				<stop  offset="0" style="stop-color:#21145F"/>
				<stop  offset="0.9987" style="stop-color:#008456"/>
			</linearGradient>
			<path fill="url(#SVGID_00000033334236469425477680000012989050293376264353_)" d="M805.4,946.8c-1.1-1.3-2.4-2.6-4.1-3.9
				c-1.6-1.3-3.6-2.8-5.7-4.4c-2.2-1.6-3.6-2.7-4.3-3.2c-0.7-0.5-1.3-1.1-1.8-1.7c-0.5-0.6-0.9-1.2-1.2-1.8
				c-0.2-0.6-0.4-1.1-0.4-1.7c0-1,0.2-1.9,0.9-2.7c0.6-0.8,1.7-1.4,3.1-1.8c1.5-0.4,3.2-0.6,5.2-0.6c3.7,0,7.5,0.8,11.5,2.4
				l-1.1-10.7c-5.9-1.1-11.1-1.6-15.6-1.6c-3.9,0-7.3,0.5-10.2,1.6c-2.9,1-5,2.7-6.4,5c-1.4,2.3-2.1,4.6-2,7.1
				c0.1,1.4,0.4,2.8,0.9,4.2c0.6,1.4,1.3,2.7,2.3,4c1,1.3,2.2,2.5,3.7,3.7c1.5,1.2,3.6,2.8,6.3,4.9l2.9,2.2c1,0.7,1.7,1.3,2.3,1.8
				c0.5,0.5,1,0.9,1.3,1.2c0.3,0.4,0.6,0.7,0.8,1.2c0.2,0.4,0.4,0.8,0.5,1.2c0.1,0.4,0.2,0.8,0.2,1.2c0,1-0.2,1.9-0.9,2.8
				c-0.6,0.9-1.6,1.6-2.9,2.1s-2.9,0.7-4.9,0.7c-2,0-4.1-0.3-6.4-0.8c-2.4-0.5-5.2-1.5-8.6-2.8l1.6,11.3c3.4,0.8,6.6,1.4,9.5,1.7
				c3,0.3,5.5,0.5,7.5,0.5c3.9,0,7.5-0.6,10.6-1.8c3.1-1.2,5.4-2.9,6.9-5.1c1.5-2.2,2.2-4.6,2.1-7.1c-0.1-1.5-0.4-3.1-1-4.6
				C807.3,949.5,806.5,948.1,805.4,946.8z"/>
		</g>
		<g>
			
				<linearGradient id="SVGID_00000104706765825191390140000012332165250489451927_" gradientUnits="userSpaceOnUse" x1="457.6198" y1="1353.6194" x2="1259.4209" y2="469.0701">
				<stop  offset="0" style="stop-color:#21145F"/>
				<stop  offset="0.9987" style="stop-color:#008456"/>
			</linearGradient>
			<path fill="url(#SVGID_00000104706765825191390140000012332165250489451927_)" d="M841.7,959.1c-1.2,0-2.3-0.3-3.3-0.8
				c-1-0.5-1.8-1.4-2.3-2.5c-0.5-1.2-0.8-2.8-0.9-4.9c-0.1-2.2-0.1-10.2,0.1-24.2h13.1c-0.1-2-0.1-5.3,0-9.9h-13
				c-0.1-4-0.2-8.4-0.1-13c-3.6,0.9-6,1.5-7.3,1.7l-6,1.2c0,4.8-0.1,8.1-0.2,10.1h-7.7c0,4.6,0,7.9-0.1,9.9h7.4l-0.3,21.4
				c-0.1,4.1-0.1,6.5-0.1,7.3c0,0.8,0,1.4,0,1.8c0.1,1.7,0.4,3.4,0.9,5.1c0.5,1.6,1.5,3,2.8,4.3c1.4,1.2,3,2.1,5.1,2.5
				c2,0.5,4.3,0.7,6.8,0.7c1.4,0,3-0.1,4.6-0.3c1.6-0.2,3.9-0.6,6.7-1.2c0.7-5.1,1.2-8.6,1.5-10.5c-2.3,0.6-4,1-4.9,1.1
				C843.5,959,842.6,959.1,841.7,959.1z"/>
		</g>
		<g>
			
				<linearGradient id="SVGID_00000109010157268224836520000001499388681461547440_" gradientUnits="userSpaceOnUse" x1="485.8312" y1="1379.1918" x2="1287.6323" y2="494.6424">
				<stop  offset="0" style="stop-color:#21145F"/>
				<stop  offset="0.9987" style="stop-color:#008456"/>
			</linearGradient>
			<path fill="url(#SVGID_00000109010157268224836520000001499388681461547440_)" d="M904.3,942.1c0.3-1.7,0.4-3.4,0.3-5
				c-0.1-3.4-0.8-6.5-2.1-9.3c-1.3-2.8-3-5.2-5.2-7.2s-4.9-3.4-8.1-4.3c-3.2-0.9-6.5-1.3-10-1.3c-3.7,0-7.2,0.5-10.6,1.6
				c-3.4,1-6.3,2.8-8.8,5.3c-2.5,2.5-4.5,5.7-5.8,9.7c-1.3,3.9-1.9,8-1.7,12.2c0.2,3.8,0.9,7.4,2.4,10.9c1.4,3.4,3.5,6.4,6.3,8.7
				c2.8,2.4,5.9,4,9.5,4.9c3.6,0.9,7.6,1.3,12.1,1.3c2.6,0,5.1-0.1,7.6-0.4c2.5-0.3,5.6-0.8,9.3-1.6c0.6-5.2,1.1-8.9,1.4-10.9
				c-3.7,1.2-7,2.1-9.7,2.6c-2.7,0.5-5.3,0.8-7.6,0.8c-2,0-4.1-0.3-6.2-0.9c-2.1-0.6-3.9-1.6-5.5-3c-1.6-1.3-2.8-2.9-3.6-4.9
				c-0.9-1.9-1.3-4-1.4-6.3c0-0.8,0-1.8,0-3L904.3,942.1z M867.7,932.2c0.3-1,0.8-2,1.4-3c0.6-1.1,1.5-2,2.6-2.9
				c1.1-0.9,2.3-1.5,3.6-1.9c1.3-0.4,2.7-0.7,4.1-0.7c1.2,0,2.4,0.1,3.5,0.4c1.1,0.3,2.1,0.7,2.9,1.2s1.6,1.1,2.2,1.9
				c0.6,0.8,1.2,1.7,1.6,2.7c0.4,1,0.7,1.9,0.8,2.7c0.1,0.8,0.2,2,0.3,3.6l-24-0.1C867.1,934.5,867.4,933.2,867.7,932.2z"/>
		</g>
		<g>
			
				<linearGradient id="SVGID_00000142856070298020775150000015037539708390008734_" gradientUnits="userSpaceOnUse" x1="506.1241" y1="1397.5862" x2="1307.9252" y2="513.0369">
				<stop  offset="0" style="stop-color:#21145F"/>
				<stop  offset="0.9987" style="stop-color:#008456"/>
			</linearGradient>
			<path fill="url(#SVGID_00000142856070298020775150000015037539708390008734_)" d="M939.5,915.1c-1.5,0-2.9,0.2-4.3,0.5
				c-1.4,0.3-2.6,0.8-3.8,1.5c-1.1,0.7-2.1,1.4-3,2.3c-0.9,0.9-1.9,2.3-3.2,4.1l0-7.2c-2.9,0.1-5.2,0.1-6.9,0.1c-1.5,0-3.9,0-7-0.1
				c0.2,2.7,0.3,4.4,0.3,4.9c0.1,2.9,0.2,5.9,0.3,8.8l0.2,14.2l-0.5,24.4c2.9-0.1,5.5-0.1,7.6-0.1c2.2,0,4.5,0,7.1,0.1
				c-0.2-2.4-0.3-4.4-0.4-6.1c-0.2-4.2-0.3-8.4-0.2-12.7c0-4.3,0.1-7.4,0.3-9.1c0.2-2.3,0.6-4.2,1.2-5.6c0.7-1.8,1.6-3.3,2.8-4.5
				c1.2-1.2,2.5-2.1,4-2.7c1.5-0.6,3.2-0.9,5.2-0.9c1.6,0,3.5,0.3,5.5,0.8c-0.5-4.9-0.8-8.9-1-12.1
				C942.2,915.2,940.8,915.1,939.5,915.1z"/>
		</g>
	</g>
	<g>
		<g>
			
				<linearGradient id="SVGID_00000009574583896085333410000011773084777003141772_" gradientUnits="userSpaceOnUse" x1="18.0811" y1="955.1989" x2="819.8823" y2="70.6496">
				<stop  offset="0" style="stop-color:#21145F"/>
				<stop  offset="0.9987" style="stop-color:#008456"/>
			</linearGradient>
			<path fill="url(#SVGID_00000009574583896085333410000011773084777003141772_)" d="M107.6,866.2c0-4.5-3.5-8.3-8.8-8.3
				c-5.2,0-9,3.7-9,8.3c0,4.5,3.6,8.1,9,8.1C104,874.3,107.6,870.9,107.6,866.2z"/>
		</g>
		<g>
			
				<linearGradient id="SVGID_00000093155604833988700990000007646949019679088313_" gradientUnits="userSpaceOnUse" x1="7.3308" y1="945.4543" x2="809.132" y2="60.905">
				<stop  offset="0" style="stop-color:#21145F"/>
				<stop  offset="0.9987" style="stop-color:#008456"/>
			</linearGradient>
			<path fill="url(#SVGID_00000093155604833988700990000007646949019679088313_)" d="M79.2,874.3c5.2,0,8.8-3.4,8.8-8.1
				c0-4.5-3.5-8.3-8.8-8.3c-5.2,0-9,3.7-9,8.3C70.2,870.7,73.8,874.3,79.2,874.3z"/>
		</g>
		<g>
			
				<linearGradient id="SVGID_00000005237597990785546770000000877809340675936139_" gradientUnits="userSpaceOnUse" x1="60.1399" y1="993.3231" x2="861.941" y2="108.7738">
				<stop  offset="0" style="stop-color:#21145F"/>
				<stop  offset="0.9987" style="stop-color:#008456"/>
			</linearGradient>
			<path fill="url(#SVGID_00000005237597990785546770000000877809340675936139_)" d="M352.1,768.2v72.5h-19.9
				c0.9-11.1,1-18.6,1-24.3c0-17.8-11.1-23.6-25.4-23.6c-8.7,0-22.6,2.2-38.3,8.4v-8.4H254v47.9h-13.7c0.7-7.8,1-15.8,1-24.1
				c0-16.2-9.1-23.8-25.4-23.8c-8.7,0-22.2,2.2-32.8,5.2l1.3,6.5c6.5-1.6,17.5-2.8,23.8-2.8c15.2,0,17.1,8.1,17.1,24.9
				c0,2.9-0.2,7.5-0.7,14h-61.3V818c0-16-9.7-25.3-31.7-25.3h-26.5v47.9H93.5c-17.3,0-22.6-9.8-22.6-21.8c0-6.6,1.6-13.7,4.5-20.2
				h-15c-3.4,8.3-5,16.2-5,23.1c0,16,7.3,26.7,34.2,26.7h31v-46.6h10.3c11.3,0,16.2,7.2,16.2,16.2v30.3h130.8v-0.1l55.5,0.1v0h34.5
				v-80.2H352.1z M316.4,840.6l-46.9-0.1v-32.9c12.8-4.7,24.2-5.9,30.4-5.9c15.2,0,17.1,7.7,17.1,24.7
				C317.1,829.4,316.8,834.1,316.4,840.6z"/>
		</g>
		<g>
			
				<linearGradient id="SVGID_00000038400046002710145850000007442278269041298848_" gradientUnits="userSpaceOnUse" x1="148.1389" y1="1073.09" x2="949.94" y2="188.5406">
				<stop  offset="0" style="stop-color:#21145F"/>
				<stop  offset="0.9987" style="stop-color:#008456"/>
			</linearGradient>
			<rect x="380.4" y="768.2" fill="url(#SVGID_00000038400046002710145850000007442278269041298848_)" width="15.6" height="80.2"/>
		</g>
		<g>
			
				<linearGradient id="SVGID_00000038371538734024570480000002357390618953325213_" gradientUnits="userSpaceOnUse" x1="215.953" y1="1134.5602" x2="1017.7541" y2="250.0108">
				<stop  offset="0" style="stop-color:#21145F"/>
				<stop  offset="0.9987" style="stop-color:#008456"/>
			</linearGradient>
			<path fill="url(#SVGID_00000038371538734024570480000002357390618953325213_)" d="M437.6,827.1c-0.6,3.5-1.3,7.3-1.9,11.4
				c-0.8,5.6-1.3,9.7-1.3,12.1c0,15.7,10,23.6,34.2,23.6c18,0,33.6-3,33.6-23.6v-2.3h0h6.3h28.2v-43.3h-15.5v35.5h-12.6h-6.3h0
				v-72.5h-15.5v84c0,11.5-4.5,16.4-18.1,16.4c-13.8,0-18-4.9-18-16.4c0-5.1,0.6-13.5,2-25H437.6z"/>
		</g>
		<g>
			
				<linearGradient id="SVGID_00000015341374336129146100000005932883798064535959_" gradientUnits="userSpaceOnUse" x1="214.5516" y1="1133.2899" x2="1016.3527" y2="248.7405">
				<stop  offset="0" style="stop-color:#21145F"/>
				<stop  offset="0.9987" style="stop-color:#008456"/>
			</linearGradient>
			<path fill="url(#SVGID_00000015341374336129146100000005932883798064535959_)" d="M542.9,791h-4.6c-7.3,0-11.7-3.3-11.7-9.8
				c0-3.9,1.3-7.6,8.3-7.6c1.8,0,3.7,0.2,5.7,0.6v-5.6c-3.5-0.5-6.6-0.8-9.5-0.8c-11.4,0-16.8,6.2-16.8,13.4c0,4.4,1.8,7.5,4.8,9.8
				h-4.8v6.5h28.6V791z"/>
		</g>
		<g>
			
				<linearGradient id="SVGID_00000044897969975581991660000001866273455114840200_" gradientUnits="userSpaceOnUse" x1="261.6648" y1="1175.9957" x2="1063.4659" y2="291.4464">
				<stop  offset="0" style="stop-color:#21145F"/>
				<stop  offset="0.9987" style="stop-color:#008456"/>
			</linearGradient>
			<path fill="url(#SVGID_00000044897969975581991660000001866273455114840200_)" d="M549.2,768.2v80.2h21.9h6.8h62.8
				c1.2-10.4,1.8-20.8,1.8-31.9c0-16.2-9.1-23.8-25.4-23.8c-8.7,0-22.2,2.1-32.8,5.2l1.3,6.5c6.5-1.6,17.5-2.8,23.8-2.8
				c15.2,0,17.1,8.1,17.1,24.9c0,2.9-0.3,7.5-0.7,14h-47.7h-6.8h-6.3v-72.5H549.2z"/>
		</g>
		<g>
			
				<linearGradient id="SVGID_00000106132120785619947740000004741605351558134178_" gradientUnits="userSpaceOnUse" x1="440.2762" y1="1337.8983" x2="1242.0774" y2="453.349">
				<stop  offset="0" style="stop-color:#21145F"/>
				<stop  offset="0.9987" style="stop-color:#008456"/>
			</linearGradient>
			<path fill="url(#SVGID_00000106132120785619947740000004741605351558134178_)" d="M867.9,874.3c5.2,0,8.8-3.4,8.8-8.1
				c0-4.5-3.5-8.3-8.8-8.3c-5.2,0-9,3.7-9,8.3C858.9,870.7,862.5,874.3,867.9,874.3z"/>
		</g>
		<g>
			
				<linearGradient id="SVGID_00000029010104188063880250000014809521335674712992_" gradientUnits="userSpaceOnUse" x1="433.4776" y1="1331.7357" x2="1235.2788" y2="447.1864">
				<stop  offset="0" style="stop-color:#21145F"/>
				<stop  offset="0.9987" style="stop-color:#008456"/>
			</linearGradient>
			<path fill="url(#SVGID_00000029010104188063880250000014809521335674712992_)" d="M936.9,768.2c-5.2,0-9,3.7-9,8.3
				c0,4.5,3.6,8.1,9,8.1c5.2,0,8.8-3.4,8.8-8.1C945.7,771.9,942.2,768.2,936.9,768.2z"/>
		</g>
		<g>
			
				<linearGradient id="SVGID_00000102536828125699975250000002793653414633143961_" gradientUnits="userSpaceOnUse" x1="389.9426" y1="1292.2733" x2="1191.7438" y2="407.724">
				<stop  offset="0" style="stop-color:#21145F"/>
				<stop  offset="0.9987" style="stop-color:#008456"/>
			</linearGradient>
			<path fill="url(#SVGID_00000102536828125699975250000002793653414633143961_)" d="M919.1,794.1v46.6h-20c0.7-7.8,1-15.8,1-24.1
				c0-16.2-9.1-23.8-25.4-23.8c-8.7,0-22.2,2.2-32.8,5.2l1.3,6.5c6.5-1.6,17.5-2.8,23.8-2.8c15.2,0,17.1,8.1,17.1,24.9
				c0,2.9-0.3,7.5-0.7,14h-63c1.1-3.3,1.8-7.2,1.8-11.8c0-13.6-10-27.9-29.8-27.9c-19.6,0-29.8,13.8-29.8,27.9
				c0,4.2,0.6,8.2,1.7,11.8h-33.2c11.4-9.8,15.1-25.1,15.1-35.9c0-5.6-12.2-12-27.3-12c-14.8,0-27.5,6.3-27.5,12
				c0,11.6,3.9,26.2,15.2,35.9l0.5,0.5c-16.6,2-26,9.5-26,21.7c0,13.3,10.6,21.9,29,21.9c7.7,0,18.7-1.3,25.2-2.7l3.8-0.9l-1.4-5.9
				c-6.3,1.2-12.4,1.8-18.5,1.8c-10.5,0-20-4.9-20-14.2c0-9.9,7.3-14.3,17.3-14.5h51.9c4.7,5.8,12.3,9.3,23.9,9.3
				c8.5,0,17.8-2.3,23.7-9.3h118.8v-54.3H919.1z M718.7,842.9c-1,0-2.4-2.4-2.4-2.4c-4.1-8.1-11.1-21.2-11.1-30.6
				c0-6.6,3.4-11.3,13.5-11.3c24.7,0,9.3,28.4,2.3,42C721,840.6,719.7,842.9,718.7,842.9z M792.1,851.9c-10,0-13.6-9.3-13.6-21.8
				c0-7.8,1.3-23.3,13.6-23.3c12.3,0,13.6,15.6,13.6,23.3C805.8,842.4,802.2,851.9,792.1,851.9z"/>
		</g>
		<g>
			
				<linearGradient id="SVGID_00000043439483439618050820000009760850744847587746_" gradientUnits="userSpaceOnUse" x1="422.7274" y1="1321.9912" x2="1224.5286" y2="437.4419">
				<stop  offset="0" style="stop-color:#21145F"/>
				<stop  offset="0.9987" style="stop-color:#008456"/>
			</linearGradient>
			<path fill="url(#SVGID_00000043439483439618050820000009760850744847587746_)" d="M908.3,776.5c0,4.5,3.6,8.1,9,8.1
				c5.2,0,8.8-3.4,8.8-8.1c0-4.5-3.5-8.3-8.8-8.3C912.1,768.2,908.3,771.8,908.3,776.5z"/>
		</g>
	</g>
	<g>
		
			<linearGradient id="SVGID_00000082328969326934365430000011364229958539250341_" gradientUnits="userSpaceOnUse" x1="-101.6353" y1="846.6817" x2="700.1658" y2="-37.8676">
			<stop  offset="0" style="stop-color:#21145F"/>
			<stop  offset="0.9987" style="stop-color:#008456"/>
		</linearGradient>
		<path fill="url(#SVGID_00000082328969326934365430000011364229958539250341_)" d="M748,162.8C707.8,66.8,602.2,32.4,509.7,58
			c-2.4-9.2-6.8-20.5-10.1-27.2c-3.3,6.7-7.7,18-10.1,27.2c-92.6-25.5-198.1,8.8-238.3,104.8c22.7-32,88.6-59.9,127.5-61
			c-44.4,42.6-85.8,95.1-68.9,182.7c6.1-52.4,49.1-111,86.8-127.8c-21,42.9-26.6,109.1-2.3,164.9c7.7,17.7,18.4,34.3,32.6,48.9
			c-6.6-13.5-11-30.4-13-48.9c-6-56.9,11.5-128.9,58.5-164.5c-1,51-0.5,111.8,6.2,164.5c4.2,33,10.8,63,20.9,85.3
			c10.1-22.3,16.7-52.2,20.9-85.3c6.7-52.8,7.2-113.6,6.2-164.5c47.1,35.6,64.5,107.6,58.5,164.5c-1.9,18.4-6.3,35.3-13,48.9
			c14.2-14.5,24.9-31.2,32.6-48.9c24.3-55.8,18.7-122-2.3-164.9c37.7,16.9,80.7,75.4,86.8,127.8c16.9-87.5-24.5-140.1-68.9-182.7
			C659.4,102.9,725.2,130.8,748,162.8z"/>
		<g>
			
				<linearGradient id="SVGID_00000052063255848127532700000004549433821583261590_" gradientUnits="userSpaceOnUse" x1="17.8162" y1="954.9587" x2="819.6174" y2="70.4094">
				<stop  offset="0" style="stop-color:#21145F"/>
				<stop  offset="0.9987" style="stop-color:#008456"/>
			</linearGradient>
			<path fill="url(#SVGID_00000052063255848127532700000004549433821583261590_)" d="M98.4,650.9c5,4.8,10.4,9.3,16.1,13.3
				c21.4,12,47.7,18.5,78.2,19.6c23.3-0.6,47.1-4.9,66.8-12.1c16.3-5.9,32-12.9,47.1-20.8c52.8-27.4,190.9-144.1,190.9-144.1l2.1-2
				c0.5-0.4,1-0.9,1.5-1.3c6.9-6.2,13.9-12.4,20.8-18.4c25.5-22.4,51.2-43.6,78-62.3c53.9-37.4,112.5-64.2,184.4-68.1
				c80.6-4.3,119.6,30.8,140.8,68.1c2.4,4.2,4.6,8.4,6.5,12.6c-1.4-4.2-3-8.4-4.7-12.6c-20.6-50.2-64.2-101.3-156.3-101.3
				c-92.2,0-161.7,44.5-226.5,101.3c-15,13.1-29.8,27-44.5,41c-14.7-14.1-29.5-27.9-44.5-41C390.3,366,320.8,321.5,228.6,321.5
				c-92,0-135.6,51.1-156.3,101.3c-1.7,4.2-3.3,8.4-4.7,12.6c2-4.2,4.1-8.4,6.5-12.6c21.3-37.3,60.2-72.4,140.8-68.1
				c71.9,3.9,130.5,30.7,184.4,68.1c26.8,18.6,52.4,39.8,77.9,62.2l-2.1,2c-26.4-23.2-53-45.1-80.9-64.2
				c-52.6-35.9-109.8-61.5-179.5-65.2c-77.9-4.2-116.2,29.2-137.3,65.2c-0.4,0.6-0.7,1.2-1.1,1.9c-11.8,20.7-18.7,43.9-21.2,67.6
				c-1.7,16.2-1.8,21.7-1.8,26.9c0,5.2-2,28,5.6,62.3c3.7,16.8,10.6,32.5,20,46.5C84.6,636.2,91.1,643.9,98.4,650.9z M64.6,519.8
				c0-8.5,10.4-97,132.8-97c95.6,0,163.9,59,231.4,108.1c-49.9,45.5-122.2,120-231.4,120C64.6,650.9,64.6,543.1,64.6,519.8z"/>
			
				<linearGradient id="SVGID_00000156566321941151296200000004993324524515882666_" gradientUnits="userSpaceOnUse" x1="127.0072" y1="1053.9352" x2="928.8083" y2="169.3858">
				<stop  offset="0" style="stop-color:#21145F"/>
				<stop  offset="0.9987" style="stop-color:#008456"/>
			</linearGradient>
			<path fill="url(#SVGID_00000156566321941151296200000004993324524515882666_)" d="M945.7,519.2c0-5.2,0-10.7-1.8-26.9
				c-2.5-23.7-9.4-46.9-21.2-67.6c-0.3-0.6-0.7-1.2-1.1-1.9c-21.1-36.1-59.4-69.4-137.3-65.2c-69.7,3.7-126.9,29.3-179.5,65.2
				c-35.9,24.5-69.7,53.9-103.8,84.5c0,0-0.1,0.1-0.1,0.1c-0.5,0.4-1.4,1.2-1.4,1.2c-43.2,38.2-135.5,114.8-186.8,142.2
				c-16.8,9-34.2,16.9-52.4,23.5c-20,7.3-44.1,11.6-67.8,12.3c-31-1-57.8-7.7-79.7-20c-7.4-5.2-14-10.5-19.8-15.8
				c-3.4-3.1-6.6-6.1-9.5-9.1c2.1,3.1,4.3,6.2,6.6,9.1c23.8,30.3,62.8,53.8,126.5,53.8c5.1,0,10.4-0.2,15.9-0.5
				c61.5-3.5,115.6-24.4,166.5-53.3c34.6-19.7,67.6-43.1,100.4-67.3c32.8,24.2,65.8,47.6,100.4,67.3c50.8,28.9,105,49.8,166.5,53.3
				c5.4,0.3,10.7,0.5,15.9,0.5c63.7,0,102.7-23.5,126.5-53.8c2.3-3,4.6-6,6.6-9.1c-2.9,3-6.1,6.1-9.5,9.1
				c-5.8,5.2-12.4,10.5-19.8,15.8c-21.9,12.3-48.7,19-79.7,20c-23.7-0.6-47.8-5-67.8-12.3c-18.2-6.6-35.6-14.5-52.4-23.5
				c-51.3-27.4-96.4-64.4-139.6-102.7c0.8-0.6,1.6-1.2,2.4-1.8c44.3,39.2,90.6,77,143.5,104.4c15.1,7.9,30.8,14.9,47.2,20.8
				c19.8,7.2,43.5,11.5,66.8,12.1c30.5-1,56.8-7.6,78.2-19.6c5.7-4,11.1-8.5,16.1-13.3c7.3-7,13.8-14.7,19.3-23
				c9.4-14,16.3-29.7,20-46.5C947.7,547.2,945.7,524.4,945.7,519.2z M801.7,650.9c-109.2,0-181.5-74.6-231.4-120
				c67.5-49.1,135.8-108.1,231.4-108.1c122.4,0,132.8,88.5,132.8,97C934.5,543.1,934.5,650.9,801.7,650.9z"/>
		</g>
	</g>
</g>
</svg>
